<svg width="390" height="844" viewBox="0 0 390 844" fill="none" xmlns="http://www.w3.org/2000/svg">
<path d="M385.336 1648.53C253.239 1626.15 69.1775 1224.85 40.7993 1076.57C12.4212 928.28 117.541 629.708 262.629 725.635C407.718 821.561 426.4 403.881 329.926 321.144C233.452 238.408 316.562 0.0511191 340.57 -13M168.302 19.3753C117.038 23.1057 55.9876 48.1532 12.8206 109.706C-59.4445 212.751 -53.5286 538.178 69.1775 678.071C191.884 817.964 253.688 880.819 267.026 1047.39C283.414 1252.03 132.764 1313.19 30.1086 1679.31" stroke="white"/>
<ellipse cx="15.9321" cy="14.8989" rx="15.9321" ry="14.8989" transform="matrix(0 -1 -1 0 144.719 759.098)" fill="white"/>
</svg>
